<svg width="0" height="0" class="hidden">
  <symbol version="1.1" xmlns="http://www.w3.org/2000/svg" id="burger-nav" viewBox="0 0 32 32">
    <title>burger-nav</title>
    <path d="M0 8.889v-3.556h32v3.556h-32zM0 17.777h32v-3.555h-32v3.555zM0 26.667h32v-3.556h-32v3.556z"></path>
  </symbol>
  <symbol fill="none" xmlns="http://www.w3.org/2000/svg" viewBox="0 0 34 34" id="call">
    <path d="M32.0012 26.0749C30.7796 24.8442 27.8211 23.0482 26.3857 22.3243C24.5164 21.3828 24.3625 21.3059 22.8933 22.3974C21.9133 23.1258 21.2617 23.7766 20.1148 23.532C18.9678 23.2874 16.4754 21.9082 14.2931 19.7329C12.1107 17.5576 10.6514 14.9931 10.4061 13.8501C10.1607 12.7071 10.8222 12.0632 11.5438 11.081C12.5607 9.69642 12.4838 9.46566 11.6145 7.59651C10.9368 6.14273 9.08833 3.21208 7.85291 1.99675C6.53134 0.691422 6.53134 0.922181 5.67979 1.27601C4.98652 1.56768 4.32141 1.92222 3.69281 2.3352C2.46201 3.15285 1.77892 3.83206 1.30122 4.85278C0.823512 5.87351 0.608892 8.26648 3.07588 12.7478C5.54286 17.2292 7.27367 19.5206 10.8561 23.0928C14.4385 26.6649 17.1931 28.5856 21.2202 30.844C26.2018 33.6339 28.1126 33.09 29.1365 32.6131C30.1604 32.1362 30.8427 31.4593 31.662 30.2286C32.076 29.6011 32.4314 28.9368 32.7235 28.2441C33.0781 27.3957 33.3089 27.3957 32.0012 26.0749Z" stroke="#CDA274" stroke-width="2" stroke-miterlimit="10"></path>
  </symbol>
  <symbol fill="" xmlns="http://www.w3.org/2000/svg" id="logo" viewBox="0 0 34 34">
    <path d="M0 34.0003H13.4588V24.499C13.4588 22.4853 15.0898 20.8543 17.1035 20.8543C19.1172 20.8543 20.7482 22.4853 20.7482 24.499V34.0003H33.9975V0C15.2211 0 0 15.2211 0 34.0003Z" fill="#CDA274"></path>
  </symbol>
  <symbol fill="none" xmlns="http://www.w3.org/2000/svg" id="arrow" viewBox="0 0 29 40">
    <path d="M2 20L26 19" stroke="#CDA274" stroke-width="2" stroke-linecap="square" stroke-linejoin="round"></path>
    <path d="M17.2172 2L28 19.8206L17 38" stroke="#CDA274" stroke-width="2" stroke-linecap="square" stroke-linejoin="round"></path>
  </symbol>
  <symbol fill="none" xmlns="http://www.w3.org/2000/svg" viewBox="0 0 34 34" id="phone">
    <path d="M32.0012 26.0749C30.7796 24.8442 27.8211 23.0482 26.3857 22.3243C24.5164 21.3828 24.3625 21.3059 22.8933 22.3974C21.9133 23.1258 21.2617 23.7766 20.1148 23.532C18.9678 23.2874 16.4754 21.9082 14.2931 19.7329C12.1107 17.5576 10.6514 14.9931 10.4061 13.8501C10.1607 12.7071 10.8222 12.0632 11.5438 11.081C12.5607 9.69642 12.4838 9.46566 11.6145 7.59651C10.9368 6.14273 9.08833 3.21208 7.85291 1.99675C6.53134 0.691422 6.53134 0.922181 5.67979 1.27601C4.98652 1.56768 4.32141 1.92222 3.69281 2.3352C2.46201 3.15285 1.77892 3.83206 1.30122 4.85278C0.823512 5.87351 0.608892 8.26648 3.07588 12.7478C5.54286 17.2292 7.27367 19.5206 10.8561 23.0928C14.4385 26.6649 17.1931 28.5856 21.2202 30.844C26.2018 33.6339 28.1126 33.09 29.1365 32.6131C30.1604 32.1362 30.8427 31.4593 31.662 30.2286C32.076 29.6011 32.4314 28.9368 32.7235 28.2441C33.0781 27.3957 33.3089 27.3957 32.0012 26.0749Z" stroke="currentColor" stroke-width="2" stroke-miterlimit="10"></path>
  </symbol>
</svg>